<?xml version="1.0" encoding="UTF-8"?>
<svg width="440" height="100" viewBox="0 0 440 100" version="1.1" xmlns="http://www.w3.org/2000/svg">
  <g fill="#000000">
    <path d="M40,75 C40,75 55,75 60,75 C65,75 70,55 70,45 C70,35 65,25 58,25 C51,25 44,35 40,45 L40,75 Z"/>
    <path d="M10,75 L40,75 L40,25 L10,25 L10,75 Z"/>
    <path d="M100,25 L70,25 L70,75 L100,75 L100,25 Z"/>
    <path d="M165,25 L165,75 L125,75 L125,65 C130,55 140,45 145,45 L140,25 L165,25 Z"/>
    <path d="M170,25 L170,75 L190,75 L190,55 L200,55 L200,75 L220,75 L220,25 L200,25 L200,45 L190,45 L190,25 L170,25 Z"/>
    <path d="M225,75 L245,75 L245,55 L265,55 L265,75 L285,75 L285,25 L265,25 L265,45 L245,45 L245,25 L225,25 L225,75 Z"/>
    <path d="M290,75 L330,75 L330,55 L310,55 L310,25 L290,25 L290,75 Z"/>
    <path d="M365,25 L365,75 L340,75 L340,65 C335,55 325,45 320,45 L325,25 L365,25 Z"/>
    <path d="M370,25 L370,75 L410,75 L410,65 C415,55 425,45 430,45 L430,25 L370,25 Z"/>
    <text x="220" y="20" font-family="Arial" font-size="16" text-anchor="middle">Pizzeria • Trattoria</text>
  </g>
</svg> 